<svg xmlns="http://www.w3.org/2000/svg" version="1.1" xmlns:xlink="http://www.w3.org/1999/xlink" xmlns:svgjs="http://svgjs.dev/svgjs" width="2000" height="525" viewBox="0 0 2000 525"><g transform="matrix(1,0,0,1,-1.2121212121210192,0.5079993085063279)"><svg viewBox="0 0 396 104" data-background-color="#ffffff" preserveAspectRatio="xMidYMid meet" height="525" width="2000" xmlns="http://www.w3.org/2000/svg" xmlns:xlink="http://www.w3.org/1999/xlink"><g id="tight-bounds" transform="matrix(1,0,0,1,0.23999999999995225,-0.10063224397077875)"><svg viewBox="0 0 395.52 104.19618295492845" height="104.19618295492845" width="395.52"><g><svg viewBox="0 0 568.5616160019023 149.78243871886121" height="104.19618295492845" width="395.52"><g transform="matrix(1,0,0,1,173.0416160019023,25.627162419928837)"><svg viewBox="0 0 395.52 98.52811387900354" height="98.52811387900354" width="395.52"><g id="textblocktransform"><svg viewBox="0 0 395.52 98.52811387900354" height="98.52811387900354" width="395.52" id="textblock"><g><svg viewBox="0 0 395.52 98.52811387900354" height="98.52811387900354" width="395.52"><g transform="matrix(1,0,0,1,0,0)"><svg width="395.52" viewBox="3.8 -28 112.39 28" height="98.52811387900354" data-palette-color="#33332d"><path d="M16-12L8-12Q8.2-11.2 8.2-10L8.2-10Q8.2-8.85 8-8L8-8Q8.2-7.2 8.2-6L8.2-6Q8.2-4.85 8-4L8-4 16-4Q16.2-3.2 16.2-2L16.2-2Q16.2-0.85 16 0L16 0 4 0Q3.8-0.85 3.8-2L3.8-2Q3.8-3.2 4-4L4-4Q3.8-4.85 3.8-6L3.8-6Q3.8-7.2 4-8L4-8Q3.8-8.85 3.8-10L3.8-10Q3.8-11.2 4-12L4-12Q3.8-12.85 3.8-14L3.8-14Q3.8-15.2 4-16L4-16Q3.8-16.85 3.8-18L3.8-18Q3.8-19.2 4-20L4-20Q3.8-20.85 3.8-22L3.8-22Q3.8-23.2 4-24L4-24Q3.8-24.85 3.8-26L3.8-26Q3.8-27.2 4-28L4-28 16-28Q16.2-27.2 16.2-26L16.2-26Q16.2-24.85 16-24L16-24 8-24Q8.2-23.2 8.2-22L8.2-22Q8.2-20.85 8-20L8-20Q8.2-19.2 8.2-18L8.2-18Q8.2-16.85 8-16L8-16 16-16Q16.2-15.2 16.2-14L16.2-14Q16.2-12.85 16-12L16-12ZM38-12Q38.2-11.2 38.2-10L38.2-10Q38.2-8.85 38-8L38-8Q38.2-7.2 38.2-6L38.2-6Q38.2-4.85 38-4L38-4 36-4Q36.2-3.2 36.2-2L36.2-2Q36.2-0.85 36 0L36 0 24 0Q23.8-0.85 23.8-2L23.8-2Q23.8-3.2 24-4L24-4 22-4Q21.8-4.85 21.8-6L21.8-6Q21.8-7.2 22-8L22-8 26-8Q26.2-7.2 26.2-6L26.2-6Q26.2-4.85 26-4L26-4 34-4Q33.8-4.85 33.8-6L33.8-6Q33.8-7.2 34-8L34-8Q33.8-8.85 33.8-10L33.8-10Q33.8-11.2 34-12L34-12 24-12Q23.8-12.85 23.8-14L23.8-14Q23.8-15.2 24-16L24-16 22-16Q21.8-16.85 21.8-18L21.8-18Q21.8-19.2 22-20L22-20Q21.8-20.85 21.8-22L21.8-22Q21.8-23.2 22-24L22-24 24-24Q23.8-24.85 23.8-26L23.8-26Q23.8-27.2 24-28L24-28 36-28Q36.2-27.2 36.2-26L36.2-26Q36.2-24.85 36-24L36-24 38-24Q38.2-23.2 38.2-22L38.2-22Q38.2-20.85 38-20L38-20 34-20Q33.8-20.85 33.8-22L33.8-22Q33.8-23.2 34-24L34-24 26-24Q26.2-23.2 26.2-22L26.2-22Q26.2-20.85 26-20L26-20Q26.2-19.2 26.2-18L26.2-18Q26.2-16.85 26-16L26-16 36-16Q36.2-15.2 36.2-14L36.2-14Q36.2-12.85 36-12L36-12 38-12ZM58.2-22Q58.2-20.85 58-20L58-20Q58.2-19.2 58.2-18L58.2-18Q58.2-16.85 58-16L58-16 56-16Q56.2-15.2 56.2-14L56.2-14Q56.2-12.85 56-12L56-12 46-12Q46.2-11.2 46.2-10L46.2-10Q46.2-8.85 46-8L46-8Q46.2-7.2 46.2-6L46.2-6Q46.2-4.85 46-4L46-4Q46.2-3.2 46.2-2L46.2-2Q46.2-0.85 46 0L46 0 42 0Q41.8-0.85 41.8-2L41.8-2Q41.8-3.2 42-4L42-4Q41.8-4.85 41.8-6L41.8-6Q41.8-7.2 42-8L42-8Q41.8-8.85 41.8-10L41.8-10Q41.8-11.2 42-12L42-12Q41.8-12.85 41.8-14L41.8-14Q41.8-15.2 42-16L42-16Q41.8-16.85 41.8-18L41.8-18Q41.8-19.2 42-20L42-20Q41.8-20.85 41.8-22L41.8-22Q41.8-23.2 42-24L42-24Q41.8-24.85 41.8-26L41.8-26Q41.8-27.2 42-28L42-28 56-28Q56.2-27.2 56.2-26L56.2-26Q56.2-24.85 56-24L56-24 58-24Q58.2-23.2 58.2-22L58.2-22ZM54-16Q53.8-16.85 53.8-18L53.8-18Q53.8-19.2 54-20L54-20Q53.8-20.85 53.8-22L53.8-22Q53.8-23.2 54-24L54-24 46-24Q46.2-23.2 46.2-22L46.2-22Q46.2-20.85 46-20L46-20Q46.2-19.2 46.2-18L46.2-18Q46.2-16.85 46-16L46-16 54-16ZM78.19-6Q78.19-4.85 77.99-4L77.99-4Q78.19-3.2 78.19-2L78.19-2Q78.19-0.85 77.99 0L77.99 0 73.99 0Q73.79-0.85 73.79-2L73.79-2Q73.79-3.2 73.99-4L73.99-4Q73.79-4.85 73.79-6L73.79-6Q73.79-7.2 73.99-8L73.99-8 65.99-8Q66.19-7.2 66.19-6L66.19-6Q66.19-4.85 65.99-4L65.99-4Q66.19-3.2 66.19-2L66.19-2Q66.19-0.85 65.99 0L65.99 0 61.99 0Q61.79-0.85 61.79-2L61.79-2Q61.79-3.2 61.99-4L61.99-4Q61.79-4.85 61.79-6L61.79-6Q61.79-7.2 61.99-8L61.99-8 63.49-8Q63.29-8.85 63.29-10L63.29-10Q63.29-11.2 63.49-12L63.49-12Q63.29-12.85 63.29-14L63.29-14Q63.29-15.2 63.49-16L63.49-16 64.49-16Q64.29-16.85 64.29-18L64.29-18Q64.29-19.2 64.49-20L64.49-20 65.99-20Q65.79-20.85 65.79-22L65.79-22Q65.79-23.2 65.99-24L65.99-24 66.99-24Q66.79-24.85 66.79-26L66.79-26Q66.79-27.2 66.99-28L66.99-28 72.99-28Q73.19-27.2 73.19-26L73.19-26Q73.19-24.85 72.99-24L72.99-24 73.99-24Q74.19-23.2 74.19-22L74.19-22Q74.19-20.85 73.99-20L73.99-20 75.49-20Q75.69-19.2 75.69-18L75.69-18Q75.69-16.85 75.49-16L75.49-16 76.49-16Q76.69-15.2 76.69-14L76.69-14Q76.69-12.85 76.49-12L76.49-12Q76.69-11.2 76.69-10L76.69-10Q76.69-8.85 76.49-8L76.49-8 77.99-8Q78.19-7.2 78.19-6L78.19-6ZM72.49-12Q72.29-12.85 72.29-14L72.29-14Q72.29-15.2 72.49-16L72.49-16 71.49-16Q71.29-16.85 71.29-18L71.29-18Q71.29-19.2 71.49-20L71.49-20 68.49-20Q68.69-19.2 68.69-18L68.69-18Q68.69-16.85 68.49-16L68.49-16 67.49-16Q67.69-15.2 67.69-14L67.69-14Q67.69-12.85 67.49-12L67.49-12 72.49-12ZM93.99-8L97.99-8Q98.19-7.2 98.19-6L98.19-6Q98.19-4.85 97.99-4L97.99-4 95.99-4Q96.19-3.2 96.19-2L96.19-2Q96.19-0.85 95.99 0L95.99 0 85.99 0Q85.79-0.85 85.79-2L85.79-2Q85.79-3.2 85.99-4L85.99-4 83.99-4Q83.79-4.85 83.79-6L83.79-6Q83.79-7.2 83.99-8L83.99-8 81.99-8Q81.79-8.85 81.79-10L81.79-10Q81.79-11.2 81.99-12L81.99-12Q81.79-12.85 81.79-14L81.79-14Q81.79-15.2 81.99-16L81.99-16Q81.79-16.85 81.79-18L81.79-18Q81.79-19.2 81.99-20L81.99-20 83.99-20Q83.79-20.85 83.79-22L83.79-22Q83.79-23.2 83.99-24L83.99-24 85.99-24Q85.79-24.85 85.79-26L85.79-26Q85.79-27.2 85.99-28L85.99-28 95.99-28Q96.19-27.2 96.19-26L96.19-26Q96.19-24.85 95.99-24L95.99-24 97.99-24Q98.19-23.2 98.19-22L98.19-22Q98.19-20.85 97.99-20L97.99-20 93.99-20Q93.79-20.85 93.79-22L93.79-22Q93.79-23.2 93.99-24L93.99-24 87.99-24Q88.19-23.2 88.19-22L88.19-22Q88.19-20.85 87.99-20L87.99-20 85.99-20Q86.19-19.2 86.19-18L86.19-18Q86.19-16.85 85.99-16L85.99-16Q86.19-15.2 86.19-14L86.19-14Q86.19-12.85 85.99-12L85.99-12Q86.19-11.2 86.19-10L86.19-10Q86.19-8.85 85.99-8L85.99-8 87.99-8Q88.19-7.2 88.19-6L88.19-6Q88.19-4.85 87.99-4L87.99-4 93.99-4Q93.79-4.85 93.79-6L93.79-6Q93.79-7.2 93.99-8L93.99-8ZM115.99-12L107.99-12Q108.19-11.2 108.19-10L108.19-10Q108.19-8.85 107.99-8L107.99-8Q108.19-7.2 108.19-6L108.19-6Q108.19-4.85 107.99-4L107.99-4 115.99-4Q116.19-3.2 116.19-2L116.19-2Q116.19-0.85 115.99 0L115.99 0 103.99 0Q103.79-0.85 103.79-2L103.79-2Q103.79-3.2 103.99-4L103.99-4Q103.79-4.85 103.79-6L103.79-6Q103.79-7.2 103.99-8L103.99-8Q103.79-8.85 103.79-10L103.79-10Q103.79-11.2 103.99-12L103.99-12Q103.79-12.85 103.79-14L103.79-14Q103.79-15.2 103.99-16L103.99-16Q103.79-16.85 103.79-18L103.79-18Q103.79-19.2 103.99-20L103.99-20Q103.79-20.85 103.79-22L103.79-22Q103.79-23.2 103.99-24L103.99-24Q103.79-24.85 103.79-26L103.79-26Q103.79-27.2 103.99-28L103.99-28 115.99-28Q116.19-27.2 116.19-26L116.19-26Q116.19-24.85 115.99-24L115.99-24 107.99-24Q108.19-23.2 108.19-22L108.19-22Q108.19-20.85 107.99-20L107.99-20Q108.19-19.2 108.19-18L108.19-18Q108.19-16.85 107.99-16L107.99-16 115.99-16Q116.19-15.2 116.19-14L116.19-14Q116.19-12.85 115.99-12L115.99-12Z" opacity="1" transform="matrix(1,0,0,1,0,0)" fill="#ffffff" class="wordmark-text-0" data-fill-palette-color="primary" id="text-0"></path></svg></g></svg></g></svg></g></svg></g><g><svg viewBox="0 0 149.78149298980264 149.78243871886121" height="149.78243871886121" width="149.78149298980264"><g><svg xmlns="http://www.w3.org/2000/svg" xmlns:xlink="http://www.w3.org/1999/xlink" xml:space="preserve" style="shape-rendering:geometricPrecision;text-rendering:geometricPrecision;image-rendering:optimizeQuality;" viewBox="0.000011056663894382649 0.00000346963052423664 1.7066483725055712 1.70665914838266" x="0" y="0" fill-rule="evenodd" clip-rule="evenodd" width="149.78149298980264" height="149.78243871886121" class="icon-icon-0" data-fill-palette-color="accent" id="icon-0"><g fill="#33332d" data-fill-palette-color="accent"><path class="" d="M1.288 0.853c0-0.12-0.049-0.229-0.128-0.307-0.079-0.079-0.187-0.127-0.307-0.127-0.12 0-0.229 0.049-0.307 0.127-0.079 0.079-0.127 0.187-0.127 0.307 0 0.12 0.049 0.229 0.127 0.307 0.079 0.079 0.187 0.127 0.307 0.128 0.12 0 0.229-0.049 0.307-0.128 0.079-0.079 0.127-0.187 0.128-0.307z m-0.067-0.367c0.094 0.094 0.152 0.224 0.152 0.367 0 0.143-0.058 0.273-0.152 0.368-0.094 0.094-0.224 0.152-0.368 0.152-0.143 0-0.273-0.058-0.367-0.152-0.094-0.094-0.152-0.224-0.152-0.368 0-0.143 0.058-0.273 0.152-0.367 0.094-0.094 0.224-0.152 0.367-0.152 0.143 0 0.273 0.058 0.368 0.152z" fill="#ffffff" fill-rule="nonzero" data-fill-palette-color="accent"></path><path class="" d="M1.013 0.853c0-0.044-0.018-0.084-0.046-0.113-0.029-0.029-0.069-0.047-0.114-0.047-0.044 0-0.084 0.018-0.113 0.047-0.029 0.029-0.047 0.069-0.047 0.113 0 0.044 0.018 0.084 0.047 0.114 0.029 0.029 0.069 0.047 0.113 0.046 0.044 0 0.084-0.018 0.114-0.046 0.029-0.029 0.047-0.069 0.046-0.114z m0.014-0.173c0.044 0.044 0.072 0.106 0.072 0.173 0 0.068-0.027 0.129-0.072 0.174-0.044 0.044-0.106 0.072-0.174 0.072-0.068 0-0.129-0.027-0.173-0.072-0.044-0.044-0.072-0.106-0.072-0.174 0-0.068 0.027-0.129 0.072-0.173 0.044-0.044 0.106-0.072 0.173-0.072 0.068 0 0.129 0.027 0.174 0.072z" fill="#ffffff" fill-rule="nonzero" data-fill-palette-color="accent"></path><path class="" d="M0.811 0.651c0 0.024 0.019 0.043 0.042 0.042 0.024 0 0.043-0.019 0.043-0.042l0-0.081c0-0.024-0.019-0.043-0.043-0.042-0.024 0-0.043 0.019-0.042 0.042l0 0.081z" fill="#ffffff" fill-rule="nonzero" data-fill-palette-color="accent"></path><path class="" d="M0.967 0.68c-0.017 0.017-0.017 0.044 0 0.06 0.017 0.017 0.044 0.017 0.06 0l0.057-0.057c0.017-0.017 0.017-0.044 0-0.06-0.017-0.017-0.044-0.017-0.061 0l-0.056 0.057z" fill="#ffffff" fill-rule="nonzero" data-fill-palette-color="accent"></path><path class="" d="M0.623 1.023c-0.017 0.017-0.017 0.044 0 0.061 0.017 0.017 0.044 0.017 0.06 0l0.057-0.057c0.017-0.017 0.017-0.044 0-0.06-0.017-0.017-0.044-0.017-0.06 0l-0.057 0.056z" fill="#ffffff" fill-rule="nonzero" data-fill-palette-color="accent"></path><path class="" d="M0.57 0.811c-0.024 0-0.043 0.019-0.042 0.042 0 0.024 0.019 0.043 0.042 0.043l0.081 0c0.024 0 0.043-0.019 0.042-0.043 0-0.024-0.019-0.043-0.042-0.042l-0.081 0z" fill="#ffffff" fill-rule="nonzero" data-fill-palette-color="accent"></path><path class="" d="M1.027 0.967c-0.017-0.017-0.044-0.017-0.06 0-0.017 0.017-0.017 0.044 0 0.06l0.056 0.057c0.017 0.017 0.044 0.017 0.061 0 0.017-0.017 0.017-0.044 0-0.061l-0.057-0.056z" fill="#ffffff" fill-rule="nonzero" data-fill-palette-color="accent"></path><path class="" d="M0.683 0.623c-0.017-0.017-0.044-0.017-0.06 0-0.017 0.017-0.017 0.044 0 0.06l0.057 0.057c0.017 0.017 0.044 0.017 0.06 0 0.017-0.017 0.017-0.044 0-0.06l-0.057-0.057z" fill="#ffffff" fill-rule="nonzero" data-fill-palette-color="accent"></path><path class="" d="M1.291 1.285c0.033-0.032 0.075-0.047 0.117-0.047 0.032 0 0.065 0.009 0.094 0.028 0.091-0.143 0.13-0.31 0.117-0.473-0.014-0.176-0.088-0.348-0.223-0.483-0.134-0.134-0.306-0.209-0.482-0.222-0.164-0.013-0.331 0.026-0.474 0.118 0.017 0.027 0.025 0.059 0.026 0.089 0 0.044-0.017 0.087-0.05 0.121l0 0 0 0c-0.001 0.001-0.002 0.002-0.003 0.002-0.033 0.032-0.075 0.047-0.118 0.048l0 0c-0.031 0-0.062-0.008-0.089-0.026-0.092 0.143-0.131 0.31-0.118 0.474 0.014 0.176 0.088 0.348 0.222 0.482 0.135 0.135 0.306 0.209 0.482 0.223 0.163 0.013 0.33-0.026 0.474-0.117-0.019-0.028-0.028-0.061-0.028-0.094l0 0c0-0.044 0.017-0.087 0.05-0.12l0 0c0.001-0.001 0.002-0.002 0.003-0.003z m0.117 0.038c-0.021 0-0.042 0.008-0.058 0.023-0.001 0.001-0.001 0.001-0.002 0.002l0 0c-0.017 0.017-0.025 0.039-0.025 0.06l0 0c0 0.021 0.008 0.042 0.023 0.059 0.001 0.001 0.001 0.001 0.002 0.002l0 0 0 0 0.002 0.002c0.001 0.001 0.001 0.001 0.002 0.001l0 0.001 0 0 0-0.001c0.001 0.001 0.002 0.002 0.003 0.003 0.004 0.003 0.007 0.006 0.009 0.009 0.014 0.019 0.01 0.046-0.009 0.06l0 0c-0.168 0.122-0.371 0.176-0.569 0.16-0.195-0.015-0.387-0.098-0.536-0.247-0.149-0.149-0.232-0.34-0.247-0.536-0.016-0.197 0.037-0.399 0.158-0.567 0.002-0.004 0.005-0.007 0.009-0.009 0.018-0.015 0.045-0.013 0.06 0.005l0 0 0 0 0 0 0.001 0.001c0.001 0.001 0.001 0.001 0.001 0.002l0 0 0.001 0.001c0.001 0.001 0.001 0.001 0.002 0.002l0 0 0 0c0.017 0.017 0.039 0.025 0.06 0.025l0 0c0.021 0 0.042-0.008 0.059-0.024 0.001-0.001 0.001-0.001 0.001-0.001l0.001 0 0 0c0.017-0.017 0.025-0.038 0.025-0.061 0-0.022-0.008-0.044-0.025-0.06-0.002-0.002-0.002-0.002-0.003-0.003l-0.001-0.001c-0.003-0.002-0.006-0.006-0.009-0.009-0.014-0.019-0.01-0.046 0.009-0.06l0.025 0.035-0.025-0.035c0.168-0.122 0.371-0.175 0.569-0.159 0.195 0.015 0.386 0.098 0.536 0.247 0.149 0.149 0.232 0.341 0.247 0.536 0.016 0.197-0.037 0.398-0.158 0.565-0.003 0.005-0.006 0.009-0.01 0.012-0.019 0.015-0.045 0.011-0.06-0.007l0 0c0 0-0.001-0.001-0.003-0.003l-0.001-0.001 0.001 0 0 0-0.001 0c0-0.001-0.001-0.001-0.001-0.002-0.001-0.001-0.001-0.001-0.002-0.002l0 0c-0.017-0.017-0.039-0.025-0.061-0.025z" fill="#ffffff" fill-rule="nonzero" data-fill-palette-color="accent"></path><path class="" d="M0.381 0.295c0-0.024-0.01-0.045-0.025-0.06-0.015-0.015-0.037-0.025-0.061-0.025-0.024 0-0.045 0.01-0.06 0.025-0.015 0.015-0.025 0.037-0.025 0.06 0 0.024 0.01 0.045 0.025 0.061 0.015 0.015 0.037 0.025 0.06 0.024 0.024 0 0.045-0.01 0.061-0.024 0.015-0.015 0.025-0.037 0.025-0.061z m0.035-0.121c0.031 0.031 0.05 0.074 0.05 0.121 0 0.047-0.019 0.09-0.05 0.121-0.031 0.031-0.074 0.05-0.121 0.05-0.047 0-0.09-0.019-0.121-0.05-0.031-0.031-0.05-0.074-0.05-0.121 0-0.047 0.019-0.09 0.05-0.121 0.031-0.031 0.074-0.05 0.121-0.05 0.047 0 0.09 0.019 0.121 0.05z" fill="#ffffff" fill-rule="nonzero" data-fill-palette-color="accent"></path></g></svg></g></svg></g></svg></g><defs></defs></svg><rect width="395.52" height="104.19618295492845" fill="none" stroke="none" visibility="hidden"></rect></g></svg></g></svg>