<svg xmlns="http://www.w3.org/2000/svg" version="1.1" xmlns:xlink="http://www.w3.org/1999/xlink" xmlns:svgjs="http://svgjs.dev/svgjs" width="128" height="128" viewBox="0 0 128 128"><g transform="matrix(0.8046875,0,0,0.8046875,12.764209016762877,12.76327694644172)"><svg viewBox="0 0 95 95" data-background-color="#ffffff" preserveAspectRatio="xMidYMid meet" height="128" width="128" xmlns="http://www.w3.org/2000/svg" xmlns:xlink="http://www.w3.org/1999/xlink"><g id="tight-bounds" transform="matrix(1,0,0,1,-0.24368792808226658,-0.2428282515724618)"><svg viewBox="0 0 95.48039713121902 95.481" height="95.481" width="95.48039713121902"><g><svg viewBox="0 0 95.48039713121902 95.481" height="95.481" width="95.48039713121902"><g><svg viewBox="0 0 95.48039713121902 95.481" height="95.481" width="95.48039713121902"><g id="textblocktransform"><svg viewBox="0 0 95.48039713121902 95.481" height="95.481" width="95.48039713121902" id="textblock"><g><svg viewBox="0 0 95.48039713121902 95.481" height="95.481" width="95.48039713121902"><g><svg viewBox="0 0 95.48039713121902 95.481" height="95.481" width="95.48039713121902"><g><svg xmlns="http://www.w3.org/2000/svg" xmlns:xlink="http://www.w3.org/1999/xlink" xml:space="preserve" style="shape-rendering:geometricPrecision;text-rendering:geometricPrecision;image-rendering:optimizeQuality;" viewBox="0.000011056663894382649 0.00000346963052423664 1.7066483725055712 1.70665914838266" x="0" y="0" fill-rule="evenodd" clip-rule="evenodd" width="95.48039713121902" height="95.481" class="icon-icon-0" data-fill-palette-color="accent" id="icon-0"><g fill="#33332d" data-fill-palette-color="accent"><path class="" d="M1.288 0.853c0-0.12-0.049-0.229-0.128-0.307-0.079-0.079-0.187-0.127-0.307-0.127-0.12 0-0.229 0.049-0.307 0.127-0.079 0.079-0.127 0.187-0.127 0.307 0 0.12 0.049 0.229 0.127 0.307 0.079 0.079 0.187 0.127 0.307 0.128 0.12 0 0.229-0.049 0.307-0.128 0.079-0.079 0.127-0.187 0.128-0.307z m-0.067-0.367c0.094 0.094 0.152 0.224 0.152 0.367 0 0.143-0.058 0.273-0.152 0.368-0.094 0.094-0.224 0.152-0.368 0.152-0.143 0-0.273-0.058-0.367-0.152-0.094-0.094-0.152-0.224-0.152-0.368 0-0.143 0.058-0.273 0.152-0.367 0.094-0.094 0.224-0.152 0.367-0.152 0.143 0 0.273 0.058 0.368 0.152z" fill="#33332d" fill-rule="nonzero" data-fill-palette-color="accent"></path><path class="" d="M1.013 0.853c0-0.044-0.018-0.084-0.046-0.113-0.029-0.029-0.069-0.047-0.114-0.047-0.044 0-0.084 0.018-0.113 0.047-0.029 0.029-0.047 0.069-0.047 0.113 0 0.044 0.018 0.084 0.047 0.114 0.029 0.029 0.069 0.047 0.113 0.046 0.044 0 0.084-0.018 0.114-0.046 0.029-0.029 0.047-0.069 0.046-0.114z m0.014-0.173c0.044 0.044 0.072 0.106 0.072 0.173 0 0.068-0.027 0.129-0.072 0.174-0.044 0.044-0.106 0.072-0.174 0.072-0.068 0-0.129-0.027-0.173-0.072-0.044-0.044-0.072-0.106-0.072-0.174 0-0.068 0.027-0.129 0.072-0.173 0.044-0.044 0.106-0.072 0.173-0.072 0.068 0 0.129 0.027 0.174 0.072z" fill="#33332d" fill-rule="nonzero" data-fill-palette-color="accent"></path><path class="" d="M0.811 0.651c0 0.024 0.019 0.043 0.042 0.042 0.024 0 0.043-0.019 0.043-0.042l0-0.081c0-0.024-0.019-0.043-0.043-0.042-0.024 0-0.043 0.019-0.042 0.042l0 0.081z" fill="#33332d" fill-rule="nonzero" data-fill-palette-color="accent"></path><path class="" d="M0.967 0.68c-0.017 0.017-0.017 0.044 0 0.06 0.017 0.017 0.044 0.017 0.06 0l0.057-0.057c0.017-0.017 0.017-0.044 0-0.06-0.017-0.017-0.044-0.017-0.061 0l-0.056 0.057z" fill="#33332d" fill-rule="nonzero" data-fill-palette-color="accent"></path><path class="" d="M0.623 1.023c-0.017 0.017-0.017 0.044 0 0.061 0.017 0.017 0.044 0.017 0.06 0l0.057-0.057c0.017-0.017 0.017-0.044 0-0.06-0.017-0.017-0.044-0.017-0.06 0l-0.057 0.056z" fill="#33332d" fill-rule="nonzero" data-fill-palette-color="accent"></path><path class="" d="M0.57 0.811c-0.024 0-0.043 0.019-0.042 0.042 0 0.024 0.019 0.043 0.042 0.043l0.081 0c0.024 0 0.043-0.019 0.042-0.043 0-0.024-0.019-0.043-0.042-0.042l-0.081 0z" fill="#33332d" fill-rule="nonzero" data-fill-palette-color="accent"></path><path class="" d="M1.027 0.967c-0.017-0.017-0.044-0.017-0.06 0-0.017 0.017-0.017 0.044 0 0.06l0.056 0.057c0.017 0.017 0.044 0.017 0.061 0 0.017-0.017 0.017-0.044 0-0.061l-0.057-0.056z" fill="#33332d" fill-rule="nonzero" data-fill-palette-color="accent"></path><path class="" d="M0.683 0.623c-0.017-0.017-0.044-0.017-0.06 0-0.017 0.017-0.017 0.044 0 0.06l0.057 0.057c0.017 0.017 0.044 0.017 0.06 0 0.017-0.017 0.017-0.044 0-0.06l-0.057-0.057z" fill="#33332d" fill-rule="nonzero" data-fill-palette-color="accent"></path><path class="" d="M1.291 1.285c0.033-0.032 0.075-0.047 0.117-0.047 0.032 0 0.065 0.009 0.094 0.028 0.091-0.143 0.13-0.31 0.117-0.473-0.014-0.176-0.088-0.348-0.223-0.483-0.134-0.134-0.306-0.209-0.482-0.222-0.164-0.013-0.331 0.026-0.474 0.118 0.017 0.027 0.025 0.059 0.026 0.089 0 0.044-0.017 0.087-0.05 0.121l0 0 0 0c-0.001 0.001-0.002 0.002-0.003 0.002-0.033 0.032-0.075 0.047-0.118 0.048l0 0c-0.031 0-0.062-0.008-0.089-0.026-0.092 0.143-0.131 0.31-0.118 0.474 0.014 0.176 0.088 0.348 0.222 0.482 0.135 0.135 0.306 0.209 0.482 0.223 0.163 0.013 0.33-0.026 0.474-0.117-0.019-0.028-0.028-0.061-0.028-0.094l0 0c0-0.044 0.017-0.087 0.05-0.12l0 0c0.001-0.001 0.002-0.002 0.003-0.003z m0.117 0.038c-0.021 0-0.042 0.008-0.058 0.023-0.001 0.001-0.001 0.001-0.002 0.002l0 0c-0.017 0.017-0.025 0.039-0.025 0.06l0 0c0 0.021 0.008 0.042 0.023 0.059 0.001 0.001 0.001 0.001 0.002 0.002l0 0 0 0 0.002 0.002c0.001 0.001 0.001 0.001 0.002 0.001l0 0.001 0 0 0-0.001c0.001 0.001 0.002 0.002 0.003 0.003 0.004 0.003 0.007 0.006 0.009 0.009 0.014 0.019 0.01 0.046-0.009 0.06l0 0c-0.168 0.122-0.371 0.176-0.569 0.16-0.195-0.015-0.387-0.098-0.536-0.247-0.149-0.149-0.232-0.34-0.247-0.536-0.016-0.197 0.037-0.399 0.158-0.567 0.002-0.004 0.005-0.007 0.009-0.009 0.018-0.015 0.045-0.013 0.06 0.005l0 0 0 0 0 0 0.001 0.001c0.001 0.001 0.001 0.001 0.001 0.002l0 0 0.001 0.001c0.001 0.001 0.001 0.001 0.002 0.002l0 0 0 0c0.017 0.017 0.039 0.025 0.06 0.025l0 0c0.021 0 0.042-0.008 0.059-0.024 0.001-0.001 0.001-0.001 0.001-0.001l0.001 0 0 0c0.017-0.017 0.025-0.038 0.025-0.061 0-0.022-0.008-0.044-0.025-0.06-0.002-0.002-0.002-0.002-0.003-0.003l-0.001-0.001c-0.003-0.002-0.006-0.006-0.009-0.009-0.014-0.019-0.01-0.046 0.009-0.06l0.025 0.035-0.025-0.035c0.168-0.122 0.371-0.175 0.569-0.159 0.195 0.015 0.386 0.098 0.536 0.247 0.149 0.149 0.232 0.341 0.247 0.536 0.016 0.197-0.037 0.398-0.158 0.565-0.003 0.005-0.006 0.009-0.01 0.012-0.019 0.015-0.045 0.011-0.06-0.007l0 0c0 0-0.001-0.001-0.003-0.003l-0.001-0.001 0.001 0 0 0-0.001 0c0-0.001-0.001-0.001-0.001-0.002-0.001-0.001-0.001-0.001-0.002-0.002l0 0c-0.017-0.017-0.039-0.025-0.061-0.025z" fill="#33332d" fill-rule="nonzero" data-fill-palette-color="accent"></path><path class="" d="M0.381 0.295c0-0.024-0.01-0.045-0.025-0.06-0.015-0.015-0.037-0.025-0.061-0.025-0.024 0-0.045 0.01-0.06 0.025-0.015 0.015-0.025 0.037-0.025 0.06 0 0.024 0.01 0.045 0.025 0.061 0.015 0.015 0.037 0.025 0.06 0.024 0.024 0 0.045-0.01 0.061-0.024 0.015-0.015 0.025-0.037 0.025-0.061z m0.035-0.121c0.031 0.031 0.05 0.074 0.05 0.121 0 0.047-0.019 0.09-0.05 0.121-0.031 0.031-0.074 0.05-0.121 0.05-0.047 0-0.09-0.019-0.121-0.05-0.031-0.031-0.05-0.074-0.05-0.121 0-0.047 0.019-0.09 0.05-0.121 0.031-0.031 0.074-0.05 0.121-0.05 0.047 0 0.09 0.019 0.121 0.05z" fill="#33332d" fill-rule="nonzero" data-fill-palette-color="accent"></path></g></svg></g></svg></g></svg></g></svg></g></svg></g></svg></g><defs></defs></svg><rect width="95.48039713121902" height="95.481" fill="none" stroke="none" visibility="hidden"></rect></g></svg></g></svg>