<svg xmlns="http://www.w3.org/2000/svg" viewBox="0 0 32 32" id="google"><g><path d="M28 1c1.654 0 3 1.346 3 3v24c0 1.654-1.346 3-3 3H4c-1.654 0-3-1.346-3-3V4c0-1.654 1.346-3 3-3h24m0-1H4C1.8 0 0 1.8 0 4v24c0 2.2 1.8 4 4 4h24c2.2 0 4-1.8 4-4V4c0-2.2-1.8-4-4-4z"></path><path d="M24.809 14.281c.115.613.177 1.255.177 1.926 0 5.239-3.507 8.964-8.803 8.964-5.066 0-9.17-4.104-9.17-9.17s4.104-9.17 9.17-9.17c2.476 0 4.545.911 6.133 2.39l-2.585 2.585V11.8c-.963-.917-2.183-1.387-3.547-1.387-3.026 0-5.485 2.556-5.485 5.582s2.459 5.588 5.485 5.588c2.745 0 4.614-1.57 4.998-3.725h-4.998v-3.576l8.625-.001z"></path></g></svg>